<svg xmlns="http://www.w3.org/2000/svg" viewBox="0 0 32 32" width="32" height="32"><polygon points="16,1 29,8.5 29,23.5 16,31 3,23.5 3,8.5" fill="#92400e"></polygon><polygon points="16,11 20,13.3 20,18 16,20.3 12,18 12,13.3" fill="#fbbf24" stroke="#92400e" stroke-width="1"></polygon><polygon points="16,2 20,4.3 20,9 16,11.3 12,9 12,4.3" fill="#fde68a" stroke="#92400e" stroke-width="1"></polygon><polygon points="23.5,6.5 27.5,8.8 27.5,13.5 23.5,15.8 19.5,13.5 19.5,8.8" fill="#fde68a" stroke="#92400e" stroke-width="1"></polygon><polygon points="23.5,15.8 27.5,18.1 27.5,22.8 23.5,25.1 19.5,22.8 19.5,18.1" fill="#fde68a" stroke="#92400e" stroke-width="1"></polygon><polygon points="16,20.3 20,22.6 20,27.3 16,29.6 12,27.3 12,22.6" fill="#fde68a" stroke="#92400e" stroke-width="1"></polygon><polygon points="8.5,15.8 12.5,18.1 12.5,22.8 8.5,25.1 4.5,22.8 4.5,18.1" fill="#fde68a" stroke="#92400e" stroke-width="1"></polygon><polygon points="8.5,6.5 12.5,8.8 12.5,13.5 8.5,15.8 4.5,13.5 4.5,8.8" fill="#fde68a" stroke="#92400e" stroke-width="1"></polygon></svg>